<svg id="Layer_1" data-name="Layer 1" xmlns="http://www.w3.org/2000/svg" viewBox="0 0 3000 1600"><defs><style>.cls-1,.cls-2{fill:#18191c;}.cls-2{stroke:#eaa536;stroke-miterlimit:10;stroke-width:5px;}</style></defs><title>Artboard 1</title><rect class="cls-1" width="3000" height="1600"/><polygon class="cls-2" points="660 848 248.14 917.36 -17.86 595.36 128 204 539.86 134.64 805.86 456.64 660 848"/><polygon class="cls-2" points="768 1628 356.14 1697.36 90.14 1375.36 236 984 647.86 914.64 913.86 1236.64 768 1628"/><polygon class="cls-2" points="666 1268 254.14 1337.36 -11.86 1015.36 134 624 545.86 554.64 811.86 876.64 666 1268"/><polygon class="cls-2" points="948 408 536.14 477.36 270.14 155.36 416 -236 827.86 -305.36 1093.86 16.64 948 408"/><polygon class="cls-2" points="508 988 96.14 1057.36 -169.86 735.36 -24 344 387.86 274.64 653.86 596.64 508 988"/><polygon class="cls-2" points="508 1548 96.14 1617.36 -169.86 1295.36 -24 904 387.86 834.64 653.86 1156.64 508 1548"/><polygon class="cls-2" points="2382 857 2793.86 926.36 3059.86 604.36 2914 213 2502.14 143.64 2236.14 465.64 2382 857"/><polygon class="cls-2" points="2274 1637 2685.86 1706.36 2951.86 1384.36 2806 993 2394.14 923.64 2128.14 1245.64 2274 1637"/><polygon class="cls-2" points="2376 1277 2787.86 1346.36 3053.86 1024.36 2908 633 2496.14 563.64 2230.14 885.64 2376 1277"/><polygon class="cls-2" points="2094 417 2505.86 486.36 2771.86 164.36 2626 -227 2214.14 -296.36 1948.14 25.64 2094 417"/><polygon class="cls-2" points="2534 997 2945.86 1066.36 3211.86 744.36 3066 353 2654.14 283.64 2388.14 605.64 2534 997"/><polygon class="cls-2" points="2534 1557 2945.86 1626.36 3211.86 1304.36 3066 913 2654.14 843.64 2388.14 1165.64 2534 1557"/></svg>