<svg id="Layer_1" data-name="Layer 1" xmlns="http://www.w3.org/2000/svg" viewBox="0 0 1200 1200">
  <defs>
    <style>.cls-1{fill:#e9a434;}.cls-1,.cls-2{stroke:#333;stroke-miterlimit:10;stroke-opacity:0;stroke-width:50.36px;}.cls-2{fill:#ffcb34;}</style>
  </defs>
  <title>Design @ Berkeley</title>
  <path class="cls-1" d="M603.43,752.73a1.9,1.9,0,0,1-3.43,0l-17.44-33.5a2.33,2.33,0,0,1,0-2.15L600.31,684a1.9,1.9,0,0,1,3.43,0l10.72,20.6,105.69,2.83-107.61-205c-4.6-8.75-16.17-8.79-20.81-.06L480.84,710.9a14.16,14.16,0,0,0,0,13.08L591.2,934.27c4.6,8.75,16.16,8.79,20.81.06l107.36-201.9-103.58-2.77"/>
  <path class="cls-2" d="M365.05,484.52l204.17.16c9,0,14.7-10.68,10.17-19.23L473.53,265.72a11.6,11.6,0,0,0-10.16-6.4l-212.59-.18c-9.05,0-14.7,10.69-10.17,19.24L344.24,473.9l48-96.06-12.46-23.61A2.16,2.16,0,0,1,381.5,351l35.43.1a2,2,0,0,1,1.71,1.08l17.58,33.31a2.17,2.17,0,0,1-1.72,3.24L413,388.67"/>
  <path class="cls-2" d="M835,484.52l-204.17.16c-9,0-14.7-10.68-10.17-19.23L726.47,265.72a11.6,11.6,0,0,1,10.16-6.4l212.59-.18c9,0,14.7,10.69,10.17,19.24L855.76,473.9l-48-96.06,12.46-23.61A2.16,2.16,0,0,0,818.5,351l-35.43.1a2,2,0,0,0-1.71,1.08l-17.58,33.31a2.17,2.17,0,0,0,1.72,3.24l21.54-.06"/>
</svg>
